# xmcd CD database file
#
# Track frame offsets:
#	150
#	19278
#	36045
#	64088
#	82991
#	116950
#	135700
#	177613
#	199942
#
# Disc length: 3001 seconds
#
# Revision: 0
# Processed by: cddbd v1.5.2PL0 Copyright (c) Steve Scherf et al.
# Submitted via: CDex 1.51
#
DISCID=810bb709
DTITLE=Florian R. Richter - Canto
DYEAR=1995
DGENRE=New Age
TTITLE0=Shoshine
TTITLE1=Canto 1
TTITLE2=Exchange
TTITLE3=Canto 2
TTITLE4=Jostedals Bre
TTITLE5=Canto 3
TTITLE6=Tribute to Colin Walcott
TTITLE7=Canto 4
TTITLE8=Konomama
EXTD=YEAR: 1995
EXTT0=
EXTT1=
EXTT2=
EXTT3=
EXTT4=
EXTT5=
EXTT6=
EXTT7=
EXTT8=
PLAYORDER=
